<mxfile host="app.diagrams.net" modified="2024-03-21T13:45:46.872Z" agent="Mozilla/5.0 (Macintosh; Intel Mac OS X 10_15_7) AppleWebKit/537.36 (KHTML, like Gecko) Chrome/122.0.0.0 Safari/537.36" etag="7IdUlDHlHhNSmeDJCq5x" version="24.0.7" type="github">
  <diagram name="ページ1" id="UQELmfzJnBHuoWw_1_xq">
    <mxGraphModel dx="3077" dy="1268" grid="1" gridSize="10" guides="1" tooltips="1" connect="1" arrows="1" fold="1" page="1" pageScale="1" pageWidth="1169" pageHeight="827" math="0" shadow="0">
      <root>
        <mxCell id="0" />
        <mxCell id="1" parent="0" />
        <mxCell id="G9I0JaCghZcZp5Z9t-bd-1" value="" style="curved=1;endArrow=none;html=1;rounded=0;strokeWidth=9;endFill=0;" edge="1" parent="1">
          <mxGeometry width="50" height="50" relative="1" as="geometry">
            <mxPoint x="-40" y="612" as="sourcePoint" />
            <mxPoint x="340" y="612" as="targetPoint" />
            <Array as="points">
              <mxPoint x="60" y="612" />
              <mxPoint x="140" y="392" />
              <mxPoint x="220" y="612" />
            </Array>
          </mxGeometry>
        </mxCell>
        <mxCell id="G9I0JaCghZcZp5Z9t-bd-3" value="" style="endArrow=none;html=1;rounded=0;strokeWidth=9;" edge="1" parent="1" source="G9I0JaCghZcZp5Z9t-bd-21">
          <mxGeometry width="50" height="50" relative="1" as="geometry">
            <mxPoint x="-50" y="1000" as="sourcePoint" />
            <mxPoint x="90" y="1000" as="targetPoint" />
          </mxGeometry>
        </mxCell>
        <mxCell id="G9I0JaCghZcZp5Z9t-bd-4" value="" style="endArrow=none;html=1;rounded=0;strokeWidth=9;" edge="1" parent="1" source="G9I0JaCghZcZp5Z9t-bd-19">
          <mxGeometry width="50" height="50" relative="1" as="geometry">
            <mxPoint x="90" y="1000" as="sourcePoint" />
            <mxPoint x="110" y="840" as="targetPoint" />
          </mxGeometry>
        </mxCell>
        <mxCell id="G9I0JaCghZcZp5Z9t-bd-7" value="" style="endArrow=none;html=1;rounded=0;strokeWidth=9;" edge="1" parent="1">
          <mxGeometry width="50" height="50" relative="1" as="geometry">
            <mxPoint x="370" y="1000" as="sourcePoint" />
            <mxPoint x="450" y="1000" as="targetPoint" />
          </mxGeometry>
        </mxCell>
        <mxCell id="G9I0JaCghZcZp5Z9t-bd-8" value="" style="curved=1;endArrow=none;html=1;rounded=0;endFill=0;strokeWidth=9;" edge="1" parent="1">
          <mxGeometry width="50" height="50" relative="1" as="geometry">
            <mxPoint x="110" y="840" as="sourcePoint" />
            <mxPoint x="370" y="1000" as="targetPoint" />
            <Array as="points">
              <mxPoint x="120" y="770" />
              <mxPoint x="170" y="850" />
              <mxPoint x="260" y="940" />
            </Array>
          </mxGeometry>
        </mxCell>
        <mxCell id="G9I0JaCghZcZp5Z9t-bd-9" value="" style="endArrow=none;html=1;rounded=0;strokeWidth=9;" edge="1" parent="1">
          <mxGeometry width="50" height="50" relative="1" as="geometry">
            <mxPoint x="340" y="612" as="sourcePoint" />
            <mxPoint x="460" y="612" as="targetPoint" />
          </mxGeometry>
        </mxCell>
        <mxCell id="G9I0JaCghZcZp5Z9t-bd-10" value="" style="endArrow=none;html=1;rounded=0;strokeWidth=9;" edge="1" parent="1">
          <mxGeometry width="50" height="50" relative="1" as="geometry">
            <mxPoint x="520" y="1000" as="sourcePoint" />
            <mxPoint x="540" y="840" as="targetPoint" />
          </mxGeometry>
        </mxCell>
        <mxCell id="G9I0JaCghZcZp5Z9t-bd-11" value="" style="endArrow=none;html=1;rounded=0;strokeWidth=9;" edge="1" parent="1">
          <mxGeometry width="50" height="50" relative="1" as="geometry">
            <mxPoint x="380" y="1000" as="sourcePoint" />
            <mxPoint x="520" y="1000" as="targetPoint" />
          </mxGeometry>
        </mxCell>
        <mxCell id="G9I0JaCghZcZp5Z9t-bd-12" value="" style="curved=1;endArrow=none;html=1;rounded=0;endFill=0;strokeWidth=9;" edge="1" parent="1">
          <mxGeometry width="50" height="50" relative="1" as="geometry">
            <mxPoint x="540" y="840" as="sourcePoint" />
            <mxPoint x="640" y="880" as="targetPoint" />
            <Array as="points">
              <mxPoint x="550" y="740" />
              <mxPoint x="590" y="810" />
            </Array>
          </mxGeometry>
        </mxCell>
        <mxCell id="G9I0JaCghZcZp5Z9t-bd-15" value="" style="endArrow=none;html=1;rounded=0;strokeWidth=9;" edge="1" parent="1">
          <mxGeometry width="50" height="50" relative="1" as="geometry">
            <mxPoint x="640" y="880" as="sourcePoint" />
            <mxPoint x="660" y="714" as="targetPoint" />
          </mxGeometry>
        </mxCell>
        <mxCell id="G9I0JaCghZcZp5Z9t-bd-16" value="" style="curved=1;endArrow=none;html=1;rounded=0;endFill=0;strokeWidth=9;" edge="1" parent="1">
          <mxGeometry width="50" height="50" relative="1" as="geometry">
            <mxPoint x="659" y="720" as="sourcePoint" />
            <mxPoint x="960" y="1000" as="targetPoint" />
            <Array as="points">
              <mxPoint x="670" y="630" />
              <mxPoint x="730" y="740" />
              <mxPoint x="790" y="830" />
              <mxPoint x="900" y="990" />
            </Array>
          </mxGeometry>
        </mxCell>
        <mxCell id="G9I0JaCghZcZp5Z9t-bd-17" value="" style="endArrow=none;html=1;rounded=0;strokeWidth=9;" edge="1" parent="1">
          <mxGeometry width="50" height="50" relative="1" as="geometry">
            <mxPoint x="960" y="1000" as="sourcePoint" />
            <mxPoint x="1100" y="1000" as="targetPoint" />
          </mxGeometry>
        </mxCell>
        <mxCell id="G9I0JaCghZcZp5Z9t-bd-18" value="" style="curved=1;endArrow=none;html=1;rounded=0;strokeWidth=9;endFill=0;" edge="1" parent="1">
          <mxGeometry width="50" height="50" relative="1" as="geometry">
            <mxPoint x="460" y="612" as="sourcePoint" />
            <mxPoint x="840" y="612" as="targetPoint" />
            <Array as="points">
              <mxPoint x="560" y="612" />
              <mxPoint x="640" y="232" />
              <mxPoint x="720" y="612" />
            </Array>
          </mxGeometry>
        </mxCell>
        <mxCell id="G9I0JaCghZcZp5Z9t-bd-20" value="" style="endArrow=none;html=1;rounded=0;strokeWidth=9;" edge="1" parent="1" target="G9I0JaCghZcZp5Z9t-bd-19">
          <mxGeometry width="50" height="50" relative="1" as="geometry">
            <mxPoint x="90" y="1000" as="sourcePoint" />
            <mxPoint x="110" y="840" as="targetPoint" />
          </mxGeometry>
        </mxCell>
        <mxCell id="G9I0JaCghZcZp5Z9t-bd-19" value="" style="shape=waypoint;sketch=0;fillStyle=solid;size=6;pointerEvents=1;points=[];fillColor=none;resizable=0;rotatable=0;perimeter=centerPerimeter;snapToPoint=1;strokeWidth=12;" vertex="1" parent="1">
          <mxGeometry x="80" y="990" width="20" height="20" as="geometry" />
        </mxCell>
        <mxCell id="G9I0JaCghZcZp5Z9t-bd-25" value="" style="endArrow=none;html=1;rounded=0;strokeWidth=9;" edge="1" parent="1" target="G9I0JaCghZcZp5Z9t-bd-21">
          <mxGeometry width="50" height="50" relative="1" as="geometry">
            <mxPoint x="-50" y="1000" as="sourcePoint" />
            <mxPoint x="90" y="1000" as="targetPoint" />
          </mxGeometry>
        </mxCell>
        <mxCell id="G9I0JaCghZcZp5Z9t-bd-21" value="" style="shape=waypoint;sketch=0;fillStyle=solid;size=6;pointerEvents=1;points=[];fillColor=none;resizable=0;rotatable=0;perimeter=centerPerimeter;snapToPoint=1;strokeWidth=12;" vertex="1" parent="1">
          <mxGeometry x="4" y="990" width="20" height="20" as="geometry" />
        </mxCell>
        <mxCell id="G9I0JaCghZcZp5Z9t-bd-26" value="" style="shape=waypoint;sketch=0;fillStyle=solid;size=6;pointerEvents=1;points=[];fillColor=none;resizable=0;rotatable=0;perimeter=centerPerimeter;snapToPoint=1;strokeWidth=12;" vertex="1" parent="1">
          <mxGeometry x="118" y="783" width="20" height="20" as="geometry" />
        </mxCell>
        <mxCell id="G9I0JaCghZcZp5Z9t-bd-29" value="" style="shape=waypoint;sketch=0;fillStyle=solid;size=6;pointerEvents=1;points=[];fillColor=none;resizable=0;rotatable=0;perimeter=centerPerimeter;snapToPoint=1;strokeWidth=12;" vertex="1" parent="1">
          <mxGeometry x="98" y="843" width="20" height="20" as="geometry" />
        </mxCell>
        <mxCell id="G9I0JaCghZcZp5Z9t-bd-30" value="" style="shape=waypoint;sketch=0;fillStyle=solid;size=6;pointerEvents=1;points=[];fillColor=none;resizable=0;rotatable=0;perimeter=centerPerimeter;snapToPoint=1;strokeWidth=12;" vertex="1" parent="1">
          <mxGeometry x="89" y="918" width="20" height="20" as="geometry" />
        </mxCell>
        <mxCell id="G9I0JaCghZcZp5Z9t-bd-31" value="" style="shape=waypoint;sketch=0;fillStyle=solid;size=6;pointerEvents=1;points=[];fillColor=none;resizable=0;rotatable=0;perimeter=centerPerimeter;snapToPoint=1;strokeWidth=12;" vertex="1" parent="1">
          <mxGeometry x="208" y="883" width="20" height="20" as="geometry" />
        </mxCell>
        <mxCell id="G9I0JaCghZcZp5Z9t-bd-32" value="" style="shape=waypoint;sketch=0;fillStyle=solid;size=6;pointerEvents=1;points=[];fillColor=none;resizable=0;rotatable=0;perimeter=centerPerimeter;snapToPoint=1;strokeWidth=12;" vertex="1" parent="1">
          <mxGeometry x="161" y="836" width="20" height="20" as="geometry" />
        </mxCell>
        <mxCell id="G9I0JaCghZcZp5Z9t-bd-33" value="" style="shape=waypoint;sketch=0;fillStyle=solid;size=6;pointerEvents=1;points=[];fillColor=none;resizable=0;rotatable=0;perimeter=centerPerimeter;snapToPoint=1;strokeWidth=12;" vertex="1" parent="1">
          <mxGeometry x="281" y="946" width="20" height="20" as="geometry" />
        </mxCell>
        <mxCell id="G9I0JaCghZcZp5Z9t-bd-34" value="" style="shape=waypoint;sketch=0;fillStyle=solid;size=6;pointerEvents=1;points=[];fillColor=none;resizable=0;rotatable=0;perimeter=centerPerimeter;snapToPoint=1;strokeWidth=12;" vertex="1" parent="1">
          <mxGeometry x="361" y="986" width="20" height="20" as="geometry" />
        </mxCell>
        <mxCell id="G9I0JaCghZcZp5Z9t-bd-35" value="" style="shape=waypoint;sketch=0;fillStyle=solid;size=6;pointerEvents=1;points=[];fillColor=none;resizable=0;rotatable=0;perimeter=centerPerimeter;snapToPoint=1;strokeWidth=12;" vertex="1" parent="1">
          <mxGeometry x="431" y="986" width="20" height="20" as="geometry" />
        </mxCell>
        <mxCell id="G9I0JaCghZcZp5Z9t-bd-36" value="" style="shape=waypoint;sketch=0;fillStyle=solid;size=6;pointerEvents=1;points=[];fillColor=none;resizable=0;rotatable=0;perimeter=centerPerimeter;snapToPoint=1;strokeWidth=12;" vertex="1" parent="1">
          <mxGeometry x="501" y="986" width="20" height="20" as="geometry" />
        </mxCell>
        <mxCell id="G9I0JaCghZcZp5Z9t-bd-37" value="" style="shape=waypoint;sketch=0;fillStyle=solid;size=6;pointerEvents=1;points=[];fillColor=none;resizable=0;rotatable=0;perimeter=centerPerimeter;snapToPoint=1;strokeWidth=12;" vertex="1" parent="1">
          <mxGeometry x="523" y="886" width="20" height="20" as="geometry" />
        </mxCell>
        <mxCell id="G9I0JaCghZcZp5Z9t-bd-38" value="" style="shape=waypoint;sketch=0;fillStyle=solid;size=6;pointerEvents=1;points=[];fillColor=none;resizable=0;rotatable=0;perimeter=centerPerimeter;snapToPoint=1;strokeWidth=12;" vertex="1" parent="1">
          <mxGeometry x="631" y="876" width="20" height="20" as="geometry" />
        </mxCell>
        <mxCell id="G9I0JaCghZcZp5Z9t-bd-39" value="" style="shape=waypoint;sketch=0;fillStyle=solid;size=6;pointerEvents=1;points=[];fillColor=none;resizable=0;rotatable=0;perimeter=centerPerimeter;snapToPoint=1;strokeWidth=12;" vertex="1" parent="1">
          <mxGeometry x="551" y="756" width="20" height="20" as="geometry" />
        </mxCell>
        <mxCell id="G9I0JaCghZcZp5Z9t-bd-40" value="" style="shape=waypoint;sketch=0;fillStyle=solid;size=6;pointerEvents=1;points=[];fillColor=none;resizable=0;rotatable=0;perimeter=centerPerimeter;snapToPoint=1;strokeWidth=12;" vertex="1" parent="1">
          <mxGeometry x="591" y="816" width="20" height="20" as="geometry" />
        </mxCell>
        <mxCell id="G9I0JaCghZcZp5Z9t-bd-41" value="" style="shape=waypoint;sketch=0;fillStyle=solid;size=6;pointerEvents=1;points=[];fillColor=none;resizable=0;rotatable=0;perimeter=centerPerimeter;snapToPoint=1;strokeWidth=12;" vertex="1" parent="1">
          <mxGeometry x="641" y="776" width="20" height="20" as="geometry" />
        </mxCell>
        <mxCell id="G9I0JaCghZcZp5Z9t-bd-42" value="" style="shape=waypoint;sketch=0;fillStyle=solid;size=6;pointerEvents=1;points=[];fillColor=none;resizable=0;rotatable=0;perimeter=centerPerimeter;snapToPoint=1;strokeWidth=12;" vertex="1" parent="1">
          <mxGeometry x="671" y="658" width="20" height="20" as="geometry" />
        </mxCell>
        <mxCell id="G9I0JaCghZcZp5Z9t-bd-43" value="" style="shape=waypoint;sketch=0;fillStyle=solid;size=6;pointerEvents=1;points=[];fillColor=none;resizable=0;rotatable=0;perimeter=centerPerimeter;snapToPoint=1;strokeWidth=12;" vertex="1" parent="1">
          <mxGeometry x="722" y="732" width="20" height="20" as="geometry" />
        </mxCell>
        <mxCell id="G9I0JaCghZcZp5Z9t-bd-44" value="" style="shape=waypoint;sketch=0;fillStyle=solid;size=6;pointerEvents=1;points=[];fillColor=none;resizable=0;rotatable=0;perimeter=centerPerimeter;snapToPoint=1;strokeWidth=12;" vertex="1" parent="1">
          <mxGeometry x="771" y="806" width="20" height="20" as="geometry" />
        </mxCell>
        <mxCell id="G9I0JaCghZcZp5Z9t-bd-45" value="" style="shape=waypoint;sketch=0;fillStyle=solid;size=6;pointerEvents=1;points=[];fillColor=none;resizable=0;rotatable=0;perimeter=centerPerimeter;snapToPoint=1;strokeWidth=12;" vertex="1" parent="1">
          <mxGeometry x="824" y="885" width="20" height="20" as="geometry" />
        </mxCell>
        <mxCell id="G9I0JaCghZcZp5Z9t-bd-46" value="" style="shape=waypoint;sketch=0;fillStyle=solid;size=6;pointerEvents=1;points=[];fillColor=none;resizable=0;rotatable=0;perimeter=centerPerimeter;snapToPoint=1;strokeWidth=12;" vertex="1" parent="1">
          <mxGeometry x="885" y="956" width="20" height="20" as="geometry" />
        </mxCell>
        <mxCell id="G9I0JaCghZcZp5Z9t-bd-47" value="" style="shape=waypoint;sketch=0;fillStyle=solid;size=6;pointerEvents=1;points=[];fillColor=none;resizable=0;rotatable=0;perimeter=centerPerimeter;snapToPoint=1;strokeWidth=12;" vertex="1" parent="1">
          <mxGeometry x="974" y="989" width="20" height="20" as="geometry" />
        </mxCell>
        <mxCell id="G9I0JaCghZcZp5Z9t-bd-48" value="" style="shape=waypoint;sketch=0;fillStyle=solid;size=6;pointerEvents=1;points=[];fillColor=none;resizable=0;rotatable=0;perimeter=centerPerimeter;snapToPoint=1;strokeWidth=12;" vertex="1" parent="1">
          <mxGeometry x="1055" y="989" width="20" height="20" as="geometry" />
        </mxCell>
      </root>
    </mxGraphModel>
  </diagram>
</mxfile>
